<?xml version="1.0" encoding="UTF-8" standalone="no"?>
<!DOCTYPE svg PUBLIC "-//W3C//DTD SVG 1.1//EN"
 "http://www.w3.org/Graphics/SVG/1.1/DTD/svg11.dtd">
<!-- Generated by graphviz version 7.1.0 (20230121.1956)
 -->
<!-- Title: threat_model Pages: 1 -->
<svg width="290pt" height="326pt"
 viewBox="0.00 0.00 290.00 326.00" xmlns="http://www.w3.org/2000/svg" xmlns:xlink="http://www.w3.org/1999/xlink">
<g id="graph0" class="graph" transform="scale(1 1) rotate(0) translate(4 322)">
<title>threat_model</title>
<polygon fill="white" stroke="none" points="-4,4 -4,-322 286,-322 286,4 -4,4"/>
<g id="clust1" class="cluster">
<title>cluster_android</title>
<polygon fill="none" stroke="green" points="8,-8 8,-310 274,-310 274,-8 8,-8"/>
<text text-anchor="middle" x="141" y="-294.8" font-family="Times,serif" font-size="14.00">Android OS</text>
</g>
<g id="clust2" class="cluster">
<title>cluster_app</title>
<polygon fill="none" stroke="red" points="16,-16 16,-235 266,-235 266,-16 16,-16"/>
<text text-anchor="middle" x="141" y="-219.8" font-family="Times,serif" font-size="14.00">Benign</text>
</g>
<!-- External Entities -->
<g id="node1" class="node">
<title>External Entities</title>
<ellipse fill="gray" stroke="gray" cx="141" cy="-261" rx="69.59" ry="18"/>
<text text-anchor="middle" x="141" y="-257.3" font-family="Times,serif" font-size="14.00">External Entities</text>
</g>
<!-- edu.ksu.cs.benign.MainActivity -->
<g id="node2" class="node">
<title>edu.ksu.cs.benign.MainActivity</title>
<polygon fill="none" stroke="black" points="236.5,-204 45.5,-204 45.5,-200 41.5,-200 41.5,-196 45.5,-196 45.5,-176 41.5,-176 41.5,-172 45.5,-172 45.5,-168 236.5,-168 236.5,-204"/>
<polyline fill="none" stroke="black" points="45.5,-200 49.5,-200 49.5,-196 45.5,-196"/>
<polyline fill="none" stroke="black" points="45.5,-176 49.5,-176 49.5,-172 45.5,-172"/>
<text text-anchor="middle" x="141" y="-182.3" font-family="Times,serif" font-size="14.00">edu.ksu.cs.benign.MainActivity</text>
</g>
<!-- External Entities&#45;&gt;edu.ksu.cs.benign.MainActivity -->
<g id="edge1" class="edge">
<title>External Entities&#45;&gt;edu.ksu.cs.benign.MainActivity</title>
<path fill="none" stroke="black" d="M141,-242.7C141,-234.67 141,-224.9 141,-215.8"/>
<polygon fill="black" stroke="black" points="144.5,-215.94 141,-205.94 137.5,-215.94 144.5,-215.94"/>
</g>
<!-- edu.ksu.cs.benign.EmailBroadcastRecv -->
<g id="node3" class="node">
<title>edu.ksu.cs.benign.EmailBroadcastRecv</title>
<polygon fill="none" stroke="black" points="257.5,-132 24.5,-132 24.5,-128 20.5,-128 20.5,-124 24.5,-124 24.5,-104 20.5,-104 20.5,-100 24.5,-100 24.5,-96 257.5,-96 257.5,-132"/>
<polyline fill="none" stroke="black" points="24.5,-128 28.5,-128 28.5,-124 24.5,-124"/>
<polyline fill="none" stroke="black" points="24.5,-104 28.5,-104 28.5,-100 24.5,-100"/>
<text text-anchor="middle" x="141" y="-110.3" font-family="Times,serif" font-size="14.00">edu.ksu.cs.benign.EmailBroadcastRecv</text>
</g>
<!-- edu.ksu.cs.benign.MainActivity&#45;&gt;edu.ksu.cs.benign.EmailBroadcastRecv -->
<g id="edge2" class="edge">
<title>edu.ksu.cs.benign.MainActivity&#45;&gt;edu.ksu.cs.benign.EmailBroadcastRecv</title>
<path fill="none" stroke="black" d="M141,-167.7C141,-160.41 141,-151.73 141,-143.54"/>
<polygon fill="black" stroke="black" points="144.5,-143.62 141,-133.62 137.5,-143.62 144.5,-143.62"/>
</g>
<!-- edu.ksu.cs.benign.EmailActivity -->
<g id="node4" class="node">
<title>edu.ksu.cs.benign.EmailActivity</title>
<polygon fill="none" stroke="black" points="238.5,-60 43.5,-60 43.5,-56 39.5,-56 39.5,-52 43.5,-52 43.5,-32 39.5,-32 39.5,-28 43.5,-28 43.5,-24 238.5,-24 238.5,-60"/>
<polyline fill="none" stroke="black" points="43.5,-56 47.5,-56 47.5,-52 43.5,-52"/>
<polyline fill="none" stroke="black" points="43.5,-32 47.5,-32 47.5,-28 43.5,-28"/>
<text text-anchor="middle" x="141" y="-38.3" font-family="Times,serif" font-size="14.00">edu.ksu.cs.benign.EmailActivity</text>
</g>
<!-- edu.ksu.cs.benign.EmailBroadcastRecv&#45;&gt;edu.ksu.cs.benign.EmailActivity -->
<g id="edge3" class="edge">
<title>edu.ksu.cs.benign.EmailBroadcastRecv&#45;&gt;edu.ksu.cs.benign.EmailActivity</title>
<path fill="none" stroke="black" d="M141,-95.7C141,-88.41 141,-79.73 141,-71.54"/>
<polygon fill="black" stroke="black" points="144.5,-71.62 141,-61.62 137.5,-71.62 144.5,-71.62"/>
</g>
</g>
</svg>
